<svg xmlns="http://www.w3.org/2000/svg" viewBox="0 0 64 64">
  <rect width="64" height="64" rx="14" fill="#141414"/>
  <circle cx="32" cy="32" r="23" fill="#ffd43b"/>
  <path
    fill="#141414"
    d="M42.8 27.1c.9-5.9-3.6-9-9.8-11.1l2-8-4.9-1.2-1.9 7.8c-1.3-.3-2.6-.6-3.9-.9l1.9-7.8-4.9-1.2-2 8c-1.1-.2-2.1-.5-3.1-.7l-6.7-1.7-1.3 5.2s3.6.8 3.5.9c2 .5 2.3 1.8 2.3 2.8l-2.3 9.1c.1 0 .3.1.5.2l-.5-.1-3.2 12.8c-.2.6-.9 1.6-2.3 1.2.1.1-3.5-.9-3.5-.9L.3 47l6.3 1.6c1.2.3 2.3.6 3.5.9l-2 8.1 4.9 1.2 2-8c1.3.4 2.6.7 3.9 1l-2 8 4.9 1.2 2-8.1c8.4 1.6 14.7.9 17.4-6.7 2.1-6.1-.1-9.6-4.5-11.9 3.2-.8 5.6-2.9 6.2-7.2ZM32 42.7c-1.5 6.1-11.8 2.8-15.1 2l2.7-10.8c3.3.8 14 2.4 12.4 8.8Zm1.5-15.7c-1.4 5.5-9.9 2.7-12.7 2l2.4-9.8c2.8.7 11.7 2 10.3 7.8Z"
    transform="translate(11 0) scale(.75)"
  />
</svg>
